<svg xmlns="http://www.w3.org/2000/svg" viewBox="0 0 221.51 35.92"><defs><style>.cls-1{fill:#fff;}.cls-2{fill:#ff1127;}</style></defs><g id="Calque_2" data-name="Calque 2"><g id="Calque_1-2" data-name="Calque 1"><path class="cls-1" d="M9,15.29A6.52,6.52,0,0,1,12.44,11a14.61,14.61,0,0,1,6.14-1.13q5.63,0,7.77,2t2.14,7.51V21h-8.4A2,2,0,0,1,20,20.4c-.14-1.63-.57-2.67-1.28-3.1a8.18,8.18,0,0,0-3.94-.66c-2.19,0-3.71.59-4.54,1.75A9.09,9.09,0,0,0,9,23.69V34.8H0V10.44H9Z"/><path class="cls-1" d="M53.22,35.32,44.51,35Q38.24,35,36,31.83t-2.27-9.92q0-6.15,2.4-9t8.35-2.84L53,9.91a40.61,40.61,0,0,1,6.42.42,8.94,8.94,0,0,1,4.38,1.93A7.18,7.18,0,0,1,66.24,16a19.8,19.8,0,0,1,.6,5.11q0,.63,0,1.41c0,.52,0,1.11,0,1.77H42.89q0,2.88,1,4.05t3.87,1.17l5.13.11a16.34,16.34,0,0,0,2.88-.21,2.42,2.42,0,0,0,1.55-.73,3.81,3.81,0,0,0,.5-1.88h8.92c0,3.65-1.18,6-3.52,7S57.57,35.32,53.22,35.32Zm-4.28-20a13.28,13.28,0,0,0-4.48.6q-1.62.6-1.62,3l0,.68h15c0-1.78-.44-2.93-1.31-3.47a8.34,8.34,0,0,0-4.23-.81Z"/><path class="cls-1" d="M99.45,34.8V29.53a6.31,6.31,0,0,1-3.78,4.62,19.08,19.08,0,0,1-7.12,1.17,52.21,52.21,0,0,1-7.67-.49,9.2,9.2,0,0,1-5-2.11,7.09,7.09,0,0,1-2.17-3.81,26.54,26.54,0,0,1-.44-5.12V22a29.39,29.39,0,0,1,.49-5.87,6.12,6.12,0,0,1,2.48-3.81,11.66,11.66,0,0,1,5.09-1.93,41.55,41.55,0,0,1,6.55-.5q5.43,0,7.72,1.07a9.56,9.56,0,0,1,3.86,3.37V0h8.82V34.8ZM92,28.59q4.29,0,5.89-.94t1.59-4.74q0-4.12-1.36-5.2t-5.91-1.07h-2a27.77,27.77,0,0,0-3.59.21,5.6,5.6,0,0,0-2.54.89,3,3,0,0,0-1.2,1.77,12.58,12.58,0,0,0-.26,2.77c0,2.64.4,4.37,1.2,5.17s2.53,1.2,5.18,1.2Z"/><path class="cls-1" d="M124.65,14.45a7.15,7.15,0,0,1,4.28-3.73A27.09,27.09,0,0,1,136,10q8.34,0,11.45,2.21t3.11,10.26q0,8-2.85,10.43t-11.4,2.45H135a18.77,18.77,0,0,1-6.57-.91,7.17,7.17,0,0,1-3.76-4.2V34.8h-9V.05h9Zm8.74,14.2a31,31,0,0,0,4.11-.24,5.15,5.15,0,0,0,2.63-1,3.27,3.27,0,0,0,1.09-1.83,11.24,11.24,0,0,0,.23-2.4c0-2.89-.4-4.71-1.22-5.45s-2.82-1.13-6-1.13h-1c-.86,0-1.7,0-2.49,0a17.58,17.58,0,0,0-3,.39,3.29,3.29,0,0,0-2.42,1.62,8.31,8.31,0,0,0-.65,3.7q0,3.87,1.62,5.07t5.61,1.2Z"/><path class="cls-1" d="M221.51,35.89H209.84l-6.34-6.64-6.28,6.64H185.87L197.71,23.2,186.55,11.52h12.07l5,5.36,5-5.36h11.73L209.44,23Z"/><path class="cls-2" d="M179.42,19.62H157a1,1,0,0,0-1,1V34.9a1,1,0,0,0,1,1h22.38a1,1,0,0,0,1-1V20.64a1,1,0,0,0-1-1ZM171,24.41a1,1,0,0,1-.71.3h-4.08a1,1,0,0,1-.71-.3,1,1,0,0,1,0-1.44,1,1,0,0,1,.71-.3h4.08a1,1,0,0,1,.71.3,1,1,0,0,1,0,1.44Z"/><path class="cls-2" d="M181.16,11.8a1,1,0,0,0-.72-.3H156a1,1,0,0,0-1,1v4.07a1,1,0,0,0,1,1h24.42a1,1,0,0,0,1-1V12.51A1,1,0,0,0,181.16,11.8Z"/></g></g></svg>